<?xml version="1.0" encoding="utf-8"?>
<!-- Generator: Adobe Illustrator 16.0.0, SVG Export Plug-In . SVG Version: 6.00 Build 0)  -->
<!DOCTYPE svg PUBLIC "-//W3C//DTD SVG 1.1//EN" "http://www.w3.org/Graphics/SVG/1.1/DTD/svg11.dtd">
<svg version="1.1" id="Forma_1_1_" xmlns="http://www.w3.org/2000/svg" xmlns:xlink="http://www.w3.org/1999/xlink" x="0px" y="0px"
	 width="50px" height="50px" viewBox="0 0 50 50" enable-background="new 0 0 50 50" xml:space="preserve">
<g id="Forma_1">
	<g>
		<path fill-rule="evenodd" clip-rule="evenodd" fill="#BBBBBB" d="M18.012,21.866c1,0,1.812-0.839,1.812-1.874v-7.313
			c0-3.269,2.57-5.929,5.729-5.929s5.729,2.66,5.729,5.929v7.313c0,1.035,0.811,1.874,1.812,1.874c1,0,1.812-0.839,1.812-1.874
			v-7.313C34.905,7.342,30.709,3,25.552,3c-5.156,0-9.352,4.342-9.352,9.679v7.313C16.201,21.027,17.012,21.866,18.012,21.866z
			 M46.332,17.654h-9.615v2.338c0,2.067-1.625,3.75-3.623,3.75s-3.623-1.683-3.623-3.75v-2.338h-7.834v2.338
			c0,2.067-1.625,3.75-3.623,3.75s-3.623-1.683-3.623-3.75v-2.338H4.667c-0.5,0-0.809,0.407-0.69,0.909l6.339,26.717
			c0.382,1.501,1.909,2.72,3.409,2.72h23.551c1.501,0,3.026-1.219,3.41-2.72l6.338-26.717
			C47.142,18.061,46.834,17.654,46.332,17.654z"/>
	</g>
</g>
</svg>
