<?xml version="1.0" encoding="utf-8"?>
<!-- Generator: Adobe Illustrator 16.0.0, SVG Export Plug-In . SVG Version: 6.00 Build 0)  -->
<!DOCTYPE svg PUBLIC "-//W3C//DTD SVG 1.1//EN" "http://www.w3.org/Graphics/SVG/1.1/DTD/svg11.dtd">
<svg version="1.1" id="Layer_1" xmlns="http://www.w3.org/2000/svg" xmlns:xlink="http://www.w3.org/1999/xlink" x="0px" y="0px"
	 width="464px" height="464px" viewBox="0 0 464 464" enable-background="new 0 0 464 464" xml:space="preserve">
<rect x="-17.5" y="-9.5" fill="#CFDFE8" width="505" height="483.5"/>
<path fill="#CFDFE8" d="M98.812,91.997h266.377v248.006H98.812V91.997z"/>
<path fill="#F4F4E6" d="M120.182,130.368h229.635v183.708H120.182V130.368z"/>
<path fill="#C8D952" d="M285.52,199.258l-25.26,50.52L235,199.258l-25.26,50.52l-25.26-50.52l-45.927,91.854h192.894L285.52,199.258
	z"/>
<path fill="#E97424" d="M175.295,167.109c0,10.145-8.226,18.371-18.371,18.371c-10.145,0-18.371-8.226-18.371-18.371
	s8.226-18.371,18.371-18.371C167.069,148.738,175.295,156.964,175.295,167.109z"/>
<path fill="#32B1CC" d="M329.15,180.888c0.294-1.168,0.448-2.368,0.46-3.573c0.271-7.602-5.658-13.993-13.26-14.289
	c-1.438,0.02-2.859,0.292-4.203,0.805c-2.133-9.12-10.432-15.444-19.79-15.081c-9.358,0.364-17.145,7.313-18.563,16.568
	c-2.095-1.482-4.593-2.283-7.158-2.296c-7.607,0.292-13.541,6.688-13.265,14.294c0.011,1.205,0.166,2.404,0.459,3.573H329.15z"/>
<g>
	<path fill="#7D8D9C" d="M290.112,332.447h59.705v9.186h-59.705V332.447z"/>
	<path fill="#7D8D9C" d="M271.742,332.447h9.185v9.186h-9.185V332.447z"/>
</g>
</svg>
