<?xml version="1.0" encoding="utf-8"?>
<!-- Generator: Adobe Illustrator 16.0.0, SVG Export Plug-In . SVG Version: 6.00 Build 0)  -->
<!DOCTYPE svg PUBLIC "-//W3C//DTD SVG 1.1//EN" "http://www.w3.org/Graphics/SVG/1.1/DTD/svg11.dtd">
<svg version="1.1" xmlns="http://www.w3.org/2000/svg" xmlns:xlink="http://www.w3.org/1999/xlink" x="0px" y="0px"
	 width="192.334px" height="124.334px" viewBox="0 0 192.334 124.334" enable-background="new 0 0 192.334 124.334"
	 xml:space="preserve">
<g id="Rounded_Rectangle_14_1_" enable-background="new    ">
	<g id="Rounded_Rectangle_14">
		<g>
			<path fill="none" stroke="#2A2A2A" stroke-miterlimit="10" d="M53.151,12.646h-34c-2.761,0-5,2.239-5,5v34c0,2.762,2.239,5,5,5
				h34c2.762,0,5-2.238,5-5v-34C58.151,14.885,55.913,12.646,53.151,12.646z"/>
		</g>
	</g>
	<g id="Rounded_Rectangle_14_copy">
		<g>
			<path fill="none" stroke="#2A2A2A" stroke-miterlimit="10" d="M113.151,12.646h-34c-2.761,0-5,2.239-5,5v34c0,2.762,2.239,5,5,5
				h34c2.762,0,5-2.238,5-5v-34C118.151,14.885,115.913,12.646,113.151,12.646z"/>
		</g>
	</g>
	<g id="Forma_1">
		<g>
			<path fill="#2A2A2A" d="M107.171,23.829c-0.554-0.554-1.218-0.831-1.991-0.831H88.821c-0.774,0-1.438,0.277-1.992,0.831
				c-0.554,0.554-0.831,1.218-0.831,1.991V42.18c0,0.773,0.277,1.437,0.831,1.991c0.554,0.554,1.218,0.83,1.992,0.83h16.359
				c0.773,0,1.438-0.276,1.991-0.83c0.554-0.555,0.831-1.218,0.831-1.991V25.82C108.002,25.047,107.725,24.383,107.171,23.829z
				 M93.899,30.927c0.864-0.835,1.903-1.253,3.116-1.253c1.222,0,2.266,0.418,3.13,1.253c0.864,0.836,1.297,1.846,1.297,3.03
				c0,1.184-0.433,2.193-1.297,3.029s-1.907,1.254-3.13,1.254c-1.213,0-2.251-0.418-3.116-1.254s-1.296-1.846-1.296-3.029
				C92.603,32.772,93.035,31.763,93.899,30.927z M105.51,41.592c0,0.248-0.086,0.456-0.258,0.623
				c-0.173,0.167-0.378,0.251-0.617,0.251H89.322c-0.249,0-0.457-0.084-0.624-0.251s-0.25-0.375-0.25-0.623V32.31h2.02
				c-0.191,0.602-0.286,1.228-0.286,1.876c0,1.834,0.668,3.397,2.005,4.692c1.337,1.293,2.946,1.94,4.828,1.94
				c1.241,0,2.388-0.296,3.438-0.888c1.051-0.593,1.881-1.397,2.492-2.414c0.611-1.018,0.917-2.128,0.917-3.331
				c0-0.648-0.097-1.274-0.287-1.876h1.935V41.592z M105.51,28.8c0,0.276-0.096,0.511-0.287,0.702
				c-0.191,0.19-0.425,0.286-0.702,0.286h-2.492c-0.276,0-0.511-0.096-0.702-0.286c-0.191-0.191-0.286-0.426-0.286-0.702v-2.363
				c0-0.268,0.095-0.499,0.286-0.695c0.191-0.195,0.426-0.293,0.702-0.293h2.492c0.277,0,0.511,0.098,0.702,0.293
				c0.191,0.196,0.287,0.428,0.287,0.695V28.8z"/>
		</g>
	</g>
	<g id="Rounded_Rectangle_14_copy_2">
		<g>
			<path fill="none" stroke="#2A2A2A" stroke-miterlimit="10" d="M172.984,12.646h-34c-2.761,0-5,2.239-5,5v34c0,2.762,2.239,5,5,5
				h34c2.761,0,5-2.238,5-5v-34C177.984,14.885,175.745,12.646,172.984,12.646z"/>
		</g>
	</g>
	<g id="Forma_1_5_">
		<g>
			<path fill="#2A2A2A" d="M167.833,28.248c-0.846,0.381-1.754,0.64-2.709,0.756c0.975-0.594,1.721-1.535,2.074-2.653
				c-0.912,0.55-1.923,0.949-2.998,1.165c-0.86-0.935-2.086-1.516-3.443-1.516c-2.605,0-4.719,2.148-4.719,4.797
				c0,0.375,0.042,0.742,0.122,1.093c-3.921-0.2-7.397-2.11-9.726-5.013c-0.406,0.707-0.637,1.531-0.637,2.411
				c0,1.665,0.833,3.134,2.098,3.993c-0.773-0.026-1.5-0.243-2.137-0.603v0.06c0,2.325,1.627,4.263,3.784,4.705
				c-0.396,0.109-0.812,0.169-1.243,0.169c-0.305,0-0.6-0.031-0.889-0.087c0.602,1.905,2.343,3.292,4.407,3.332
				c-1.614,1.286-3.649,2.053-5.86,2.053c-0.381,0-0.756-0.022-1.125-0.065c2.088,1.36,4.567,2.155,7.232,2.155
				c8.68,0,13.425-7.311,13.425-13.65l-0.015-0.622C166.399,30.054,167.202,29.209,167.833,28.248z"/>
		</g>
	</g>
	<g id="Rounded_Rectangle_14_3_">
		<g>
			<path fill="none" stroke="#F15922" stroke-miterlimit="10" d="M52.485,67.646h-34c-2.761,0-5,2.239-5,5v34c0,2.762,2.239,5,5,5
				h34c2.762,0,5-2.238,5-5v-34C57.485,69.885,55.247,67.646,52.485,67.646z"/>
		</g>
	</g>
	<g id="Rounded_Rectangle_14_copy_2_">
		<g>
			<path fill="none" stroke="#F15922" stroke-miterlimit="10" d="M112.484,67.646h-34c-2.761,0-5,2.239-5,5v34c0,2.762,2.239,5,5,5
				h34c2.762,0,5-2.238,5-5v-34C117.484,69.885,115.246,67.646,112.484,67.646z"/>
		</g>
	</g>
	<g id="Forma_1_11_">
		<g>
			<path fill="#F15922" d="M106.504,78.829c-0.553-0.554-1.217-0.831-1.99-0.831H88.154c-0.774,0-1.438,0.277-1.992,0.831
				c-0.554,0.554-0.831,1.218-0.831,1.991V97.18c0,0.773,0.277,1.437,0.831,1.991c0.554,0.554,1.218,0.83,1.992,0.83h16.359
				c0.773,0,1.438-0.276,1.99-0.83c0.555-0.555,0.832-1.218,0.832-1.991V80.82C107.336,80.047,107.059,79.383,106.504,78.829z
				 M93.232,85.927c0.864-0.835,1.902-1.253,3.115-1.253c1.223,0,2.266,0.418,3.131,1.253c0.863,0.836,1.297,1.846,1.297,3.03
				c0,1.184-0.434,2.193-1.297,3.029c-0.865,0.836-1.908,1.254-3.131,1.254c-1.213,0-2.251-0.418-3.115-1.254
				s-1.296-1.846-1.296-3.029C91.936,87.772,92.368,86.763,93.232,85.927z M104.844,96.592c0,0.248-0.086,0.456-0.258,0.623
				c-0.174,0.167-0.379,0.251-0.617,0.251H88.656c-0.249,0-0.457-0.084-0.624-0.251s-0.25-0.375-0.25-0.623V87.31h2.02
				c-0.191,0.602-0.286,1.228-0.286,1.876c0,1.834,0.668,3.397,2.005,4.692c1.337,1.293,2.946,1.94,4.827,1.94
				c1.242,0,2.389-0.296,3.439-0.888c1.051-0.593,1.881-1.397,2.492-2.414c0.611-1.018,0.916-2.128,0.916-3.331
				c0-0.648-0.096-1.274-0.287-1.876h1.936V96.592z M104.844,83.8c0,0.276-0.096,0.511-0.287,0.702
				c-0.191,0.19-0.426,0.286-0.703,0.286h-2.492c-0.275,0-0.51-0.096-0.701-0.286c-0.191-0.191-0.287-0.426-0.287-0.702v-2.363
				c0-0.268,0.096-0.499,0.287-0.695c0.191-0.195,0.426-0.293,0.701-0.293h2.492c0.277,0,0.512,0.098,0.703,0.293
				c0.191,0.196,0.287,0.428,0.287,0.695V83.8z"/>
		</g>
	</g>
	<g id="Rounded_Rectangle_14_copy_2_2_">
		<g>
			<path fill="none" stroke="#F15922" stroke-miterlimit="10" d="M172.318,67.646h-34c-2.762,0-5,2.239-5,5v34c0,2.762,2.238,5,5,5
				h34c2.76,0,5-2.238,5-5v-34C177.318,69.885,175.078,67.646,172.318,67.646z"/>
		</g>
	</g>
	<g id="Forma_1_9_">
		<g>
			<path fill="#F15922" d="M167.166,83.248c-0.846,0.381-1.754,0.64-2.709,0.756c0.975-0.594,1.721-1.535,2.074-2.653
				c-0.912,0.55-1.922,0.949-2.998,1.165C162.674,81.581,161.447,81,160.09,81c-2.605,0-4.719,2.148-4.719,4.797
				c0,0.375,0.043,0.742,0.123,1.093c-3.922-0.2-7.398-2.11-9.727-5.013c-0.406,0.707-0.637,1.531-0.637,2.411
				c0,1.665,0.834,3.134,2.098,3.993c-0.773-0.026-1.5-0.243-2.137-0.603v0.06c0,2.325,1.627,4.263,3.785,4.705
				c-0.396,0.109-0.813,0.169-1.244,0.169c-0.305,0-0.6-0.031-0.889-0.087c0.602,1.905,2.344,3.292,4.408,3.332
				c-1.615,1.286-3.65,2.053-5.861,2.053c-0.381,0-0.756-0.022-1.125-0.065c2.088,1.36,4.568,2.155,7.232,2.155
				c8.68,0,13.426-7.311,13.426-13.65l-0.016-0.622C165.732,85.054,166.535,84.209,167.166,83.248z"/>
		</g>
	</g>
</g>
<g id="Forma_1_1_" enable-background="new    ">
	<g id="Forma_1_3_">
		<g>
			<path fill="#2A2A2A" d="M42.51,24.004l-3.117-0.005c-3.503,0-5.767,2.126-5.767,5.415v2.496H30.49
				c-0.271,0-0.49,0.201-0.49,0.449v3.617c0,0.247,0.22,0.448,0.49,0.448h3.135v9.127c0,0.248,0.219,0.448,0.49,0.448h4.09
				c0.271,0,0.49-0.201,0.49-0.448v-9.127h3.665c0.271,0,0.49-0.201,0.49-0.448l0.002-3.617c0-0.119-0.052-0.233-0.144-0.317
				c-0.093-0.084-0.217-0.132-0.347-0.132h-3.667v-2.116c0-1.017,0.265-1.533,1.713-1.533l2.101-0.001
				c0.271,0,0.49-0.201,0.49-0.448v-3.358C43,24.205,42.781,24.005,42.51,24.004z"/>
		</g>
	</g>
	<g id="Forma_1_7_">
		<g>
			<path fill="#F15922" d="M41.843,79.004l-3.117-0.005c-3.503,0-5.767,2.126-5.767,5.415v2.496h-3.135
				c-0.271,0-0.49,0.201-0.49,0.449v3.617c0,0.247,0.22,0.448,0.49,0.448h3.135v9.127c0,0.248,0.219,0.448,0.49,0.448h4.09
				c0.271,0,0.49-0.201,0.49-0.448v-9.127h3.665c0.271,0,0.49-0.201,0.49-0.448l0.002-3.617c0-0.119-0.052-0.233-0.144-0.317
				c-0.093-0.084-0.217-0.132-0.347-0.132H38.03v-2.116c0-1.017,0.265-1.533,1.713-1.533l2.101-0.001c0.271,0,0.49-0.201,0.49-0.448
				v-3.358C42.333,79.205,42.115,79.005,41.843,79.004z"/>
		</g>
	</g>
</g>
</svg>
